<svg height="512" viewBox="0 0 512 512" width="512" xmlns="http://www.w3.org/2000/svg"><g fill="#ffffff" id="Out_line" data-name="Out line"><path d="m88 280h16v16h-16z"/><path d="m112 280h16v16h-16z"/><path d="m136 280h16v16h-16z"/><path d="m88 312h16v16h-16z"/><path d="m112 312h16v16h-16z"/><path d="m136 312h16v16h-16z"/><path d="m88 248h16v16h-16z"/><path d="m112 248h16v16h-16z"/><path d="m136 248h16v16h-16z"/><path d="m360 280h16v16h-16z"/><path d="m384 280h16v16h-16z"/><path d="m408 280h16v16h-16z"/><path d="m360 312h16v16h-16z"/><path d="m384 312h16v16h-16z"/><path d="m408 312h16v16h-16z"/><path d="m360 248h16v16h-16z"/><path d="m384 248h16v16h-16z"/><path d="m408 248h16v16h-16z"/><path d="m496 216a64.40063 64.40063 0 0 1 -38.3999-12.7998l-9.6001-7.2002v-36a7.99123 7.99123 0 0 0 -.2464-1.93848l.00763-.00195-16-64a8.00016 8.00016 0 0 0 -15.52246 0l-1.86408 7.4563-14.72869-47.86841a7.99962 7.99962 0 0 0 -15.292 0l-14.72869 47.86841-1.86408-7.4563a8.00016 8.00016 0 0 0 -15.52246 0l-16 64 .00763.00195a7.99123 7.99123 0 0 0 -.2464 1.93848v8h-56v-8a7.99977 7.99977 0 0 0 -8-8h-32a7.99977 7.99977 0 0 0 -8 8v8h-56v-8a7.99123 7.99123 0 0 0 -.2464-1.93848l.00763-.00195-16-64a8.00016 8.00016 0 0 0 -15.52246 0l-1.86408 7.4563-14.72869-47.86841a7.99962 7.99962 0 0 0 -15.292 0l-14.72869 47.86841-1.86408-7.4563a8.00016 8.00016 0 0 0 -15.52246 0l-16 64 .00763.00195a7.99123 7.99123 0 0 0 -.2464 1.93848v36l-9.59961 7.2002a64.40316 64.40316 0 0 1 -38.40039 12.7998v16a80.41335 80.41335 0 0 0 32.44141-6.89746l-3.48 6.09033a33.42921 33.42921 0 0 1 -28.96141 16.80713v16a49.46327 49.46327 0 0 0 42.853-24.86865l5.147-9.00708v137.87573h-48v16h32v16h-32v16h32v16h16v-48h112v40h16v-44.15491l31.40625-25.12536 5.94336 5.94336-27.66455 35.56836 12.62988 9.82324 32-41.14307a7.99972 7.99972 0 0 0 -.6582-10.56836l-16-16a7.99959 7.99959 0 0 0 -10.6543-.59033l-37.80884 30.24707h-5.1936v-160h160v160h-5.1936l-37.80884-30.24707a7.99967 7.99967 0 0 0 -10.6543.59033l-16 16a7.99976 7.99976 0 0 0 -.6582 10.56836l31.11133 40 12.62988-9.82324-26.77588-34.42529 5.94336-5.94336 31.40625 25.12536v44.15491h16v-40h112v48h16v-16h32v-16h-32v-16h32v-16h-48v-137.87573l5.147 9.00708a49.46327 49.46327 0 0 0 42.853 24.86865v-16a33.42921 33.42921 0 0 1 -28.96143-16.80713l-3.48-6.08984a80.421 80.421 0 0 0 32.44143 6.89697zm-64 120h-80v-128h16v24a7.99977 7.99977 0 0 0 8 8h32a7.99977 7.99977 0 0 0 8-8v-24h16zm-16-168h16v24h-16zm-32 40h16v16h-16zm16-16h-16v-44.68652l8-8 8 8zm-32 0h-16v-24h16zm61.75372-40h-11.50744l5.75372-23.01514zm-37.75372-68.79688 14.87042 48.32988-.00482.01916-9.20886-9.20886a8 8 0 0 0 -11.31348 0l-9.20886 9.20886-.00482-.01916zm-26.24628 68.79688h-11.50744l5.75372-23.01514zm-29.75372 32v8h-56v-8zm-72-16v24h-16v-24zm-32 16v8h-56v-8zm-88-16h16v24h-16zm-32 40h16v16h-16zm16-16h-16v-44.68652l8-8 8 8zm-32 0h-16v-24h16zm0 16v24a7.99977 7.99977 0 0 0 8 8h32a7.99977 7.99977 0 0 0 8-8v-24h16v128h-80v-128zm61.75372-56h-11.50744l5.75372-23.01514zm-37.75372-68.79688 14.87042 48.32988-.00482.01916-9.20886-9.20886a8 8 0 0 0 -11.31348 0l-9.20886 9.20886-.00482-.01916zm-26.24628 68.79688h-11.50744l5.75372-23.01514zm-13.75372 216v-16h80v16zm272 0v-16h80v16z"/><path d="m447.99463 448c-9.5791 0-13.98584-2.9375-19.56494-6.65674-6.24512-4.1626-14.0166-9.34326-28.43994-9.34326-14.42188 0-22.19287 5.18066-28.437 9.34375-5.57863 3.71875-9.98439 6.65625-19.56203 6.65625s-13.98388-2.9375-19.5625-6.65625c-6.24414-4.16309-14.01513-9.34375-28.4375-9.34375-14.42187 0-22.19287 5.18066-28.43652 9.34375-5.57813 3.71875-9.98438 6.65625-19.56152 6.65625s-13.98291-2.9375-19.56055-6.65625c-6.24413-4.16309-14.01513-9.34375-28.43652-9.34375-14.42237 0-22.19336 5.18066-28.4375 9.34375-5.57862 3.71875-9.98487 6.65625-19.5625 6.65625-9.57715 0-13.98291-2.9375-19.56055-6.65625-6.24414-4.16309-14.01514-9.34375-28.43701-9.34375-14.42237 0-22.19336 5.18066-28.4375 9.34375-5.57862 3.71875-9.98438 6.65625-19.56201 6.65625-9.57715 0-13.98292-2.9375-19.56153-6.65625-6.24414-4.16309-14.01513-9.34375-28.43701-9.34375v16c9.57764 0 13.9834 2.9375 19.562 6.65625 6.24415 4.16309 14.01466 9.34375 28.43654 9.34375s22.19287-5.18066 28.437-9.34375c5.57862-3.71875 9.98487-6.65625 19.56251-6.65625 9.57715 0 13.9834 2.9375 19.56152 6.65625 6.24365 4.16309 14.01465 9.34375 28.43604 9.34375 14.42236 0 22.19335-5.18066 28.4375-9.34375 5.57861-3.71875 9.98489-6.65625 19.5625-6.65625 9.57714 0 13.98291 2.9375 19.56054 6.65625 6.24414 4.16309 14.01514 9.34375 28.43653 9.34375 14.42187 0 22.19287-5.18066 28.43652-9.34375 5.57861-3.71875 9.98437-6.65625 19.56152-6.65625 9.57764 0 13.98389 2.9375 19.5625 6.65625 6.24414 4.16309 14.01514 9.34375 28.4375 9.34375 14.42188 0 22.19287-5.18066 28.437-9.34375 5.57863-3.71875 9.98439-6.65625 19.56203-6.65625 9.5791 0 13.98584 2.9375 19.56494 6.65674 6.24511 4.1626 14.0166 9.34326 28.43994 9.34326s22.19531-5.18066 28.44043-9.34326c5.5791-3.71924 9.98584-6.65674 19.56494-6.65674v-16c-14.42334 0-22.19482 5.18066-28.43945 9.34326-5.57955 3.71924-9.98633 6.65674-19.56592 6.65674z"/></g></svg>