<?xml version="1.0"?>
<svg xmlns="http://www.w3.org/2000/svg" viewBox="0 0 512 512" width="512" height="512"><g  fill="#ffffff" id="Out_line" data-name="Out line"><path d="M389.65674,274.34277l-29.92517-29.92529A24.03661,24.03661,0,0,0,336,224H320V171.314l21.65674-21.65673a8.00034,8.00034,0,0,0,0-11.31446L339.314,136l18.34278-18.34277-11.31348-11.31446L328,124.686,315.314,112l18.34278-18.34277L322.34326,82.34277,304,100.686l-2.34326-2.34327A8.00035,8.00035,0,0,0,296,96h-5.75366l5.51489-22.05957-15.52246-3.88086L273.75366,96H264V72H248V96a8.00008,8.00008,0,0,0-8,8v80.27l-11.03955-6.62354L184,132.686V120h8a8.00008,8.00008,0,0,0,8-8V80l-.001-.021A39.96293,39.96293,0,0,0,216,48a8.00008,8.00008,0,0,0-8-8h-8V24a8.00008,8.00008,0,0,0-8-8H160a32.03635,32.03635,0,0,0-32,32V72a8.00008,8.00008,0,0,0-8,8v32a8.00008,8.00008,0,0,0,8,8h8v8a8.00008,8.00008,0,0,0-8,8v32a8.00008,8.00008,0,0,0,8,8v16a8.00076,8.00076,0,0,0,2.34326,5.65723l16,16a8.00063,8.00063,0,0,0,11.31348,0l16-16a7.994,7.994,0,0,0,2.07477-3.63819l15.03692,22.55542-5.9237,11.84742a8.00178,8.00178,0,0,0,.9082,8.57617L224,274.80664V406.05859A73.40291,73.40291,0,0,1,204.57477,456H184a8.00008,8.00008,0,0,0-8,8v24a8.00008,8.00008,0,0,0,8,8H360a8.00008,8.00008,0,0,0,8-8V464a8.00008,8.00008,0,0,0-8-8H339.42529A73.40269,73.40269,0,0,1,320,406.05859V373.293A27.991,27.991,0,0,0,360,348v-8.686l21.65674-21.65673a8.00034,8.00034,0,0,0,0-11.31446L375.314,300l14.34278-14.34277A8.00034,8.00034,0,0,0,389.65674,274.34277Zm-55.31348,20a24.991,24.991,0,0,0-4.73071,28.731L328,324.68652l-8-8.00048V291.314l32-32.00048L372.68652,280l-9.62182,9.62158A25.01144,25.01144,0,0,0,334.34326,294.34277ZM304,377.87012l-20.89917-12.53955,9.54907-6.8208A7.99923,7.99923,0,0,0,296,352V256a23.88238,23.88238,0,0,0,8-1.37622ZM280,307.8833l-40,28.57129V316.1167l40-28.57129ZM288,232a8,8,0,1,1,8,8A8.00917,8.00917,0,0,1,288,232Zm16-22.62378A23.88238,23.88238,0,0,0,296,208q-.61268,0-1.21777.031l-6.89112-41.34644A8,8,0,0,0,280,160a25.25031,25.25031,0,0,1-23.509-16h20.19555L304,171.314Zm-48-41.051a41.201,41.201,0,0,0,17.12793,7.10351l6.50635,39.03955a24.12275,24.12275,0,0,0-5.28711,7.187A7.97518,7.97518,0,0,1,272,216v-8a8.00008,8.00008,0,0,0-8-8,8.00917,8.00917,0,0,1-8-8Zm24,81.54394V267.8833l-40,28.57129V275.74707l36.21631-30.18042A24.1915,24.1915,0,0,0,280,249.86914ZM240,356.1167l40-28.57129v20.3374l-40,28.57178ZM343.48486,245.20117,320,268.686V240h16A8.00633,8.00633,0,0,1,343.48486,245.20117ZM324.68652,144,312,156.68652l-26.34326-26.34375A8.00035,8.00035,0,0,0,280,128H256V112h36.68652ZM168,160H144V144h24Zm16-72v16H136V88ZM144,48a16.01833,16.01833,0,0,1,16-16h24v8H168V56h30.62891A24.04118,24.04118,0,0,1,176,72H144Zm8,72h16v8H152Zm8,76.68652-8-8V176h16v12.68652Zm24-31.1084V155.31348l30.26581,30.26611-7.25635,14.5127Zm43.292,29.72657,16.8263,10.09594A24.10689,24.10689,0,0,0,256,214.62891V216a23.95631,23.95631,0,0,0,8.618,18.40479l-31.46924,26.2246L209.44434,230.999ZM192,472h80v8H192Zm80-16H256v-8h16Zm80,24H288v-8h64Zm-64-24V400H272v32H256a16.01833,16.01833,0,0,0-16,16v8H224.89124A89.308,89.308,0,0,0,240,406.05859V396.1167l28.90295-20.645L304,396.53027v9.52832A89.308,89.308,0,0,0,319.10876,456Zm44-96a12.01343,12.01343,0,0,1-12-12v-8.686l2.34326,2.34327a8.00063,8.00063,0,0,0,11.31348,0L340,335.314l4,4V348A12.01343,12.01343,0,0,1,332,360Zm20-35.31348-6.34326-6.34375a8.97038,8.97038,0,0,1,12.68652-12.68554L364.68652,312Z"/></g></svg>
