<?xml version="1.0"?>
<svg xmlns="http://www.w3.org/2000/svg" viewBox="0 0 512 512" width="512" height="512"><g  fill="#ffffff" id="Out_line" data-name="Out line"><path d="M380.16016,480l-46.46-66.37988,7.96-7.96021A8.00745,8.00745,0,0,0,344,400V384a7.9979,7.9979,0,0,0-8-8H317.77L297.1499,314.15991l4.51026-4.5A8.00745,8.00745,0,0,0,304,304V288a7.9979,7.9979,0,0,0-8-8h-8.66992L272.29,107.02l13.37012-13.36011A8.00745,8.00745,0,0,0,288,88V64a7.9979,7.9979,0,0,0-8-8V40a7.9979,7.9979,0,0,0-8-8h-8V16H248V32h-8a7.9979,7.9979,0,0,0-8,8V56a7.9979,7.9979,0,0,0-8,8V88a8.00769,8.00769,0,0,0,2.34009,5.65991L239.71,107.02,224.66992,280H216a7.9979,7.9979,0,0,0-8,8v16a8.00769,8.00769,0,0,0,2.34009,5.65991l4.51,4.5L194.23,376H176a7.9979,7.9979,0,0,0-8,8v16a8.00769,8.00769,0,0,0,2.34009,5.65991l8,8c.2.19019.3999.37012.60986.54L139.47,480H112v16H400V480ZM300.8999,376h-14.48l-12.45019-56H282.23ZM248,48h16v8H248Zm-8,24h32V84.68994L260.68994,96h-9.37988L240,84.68994Zm31.27,208H240.73l14.6001-168h1.33984ZM224,296h64v4.68994L284.68994,304H227.31006L224,300.68994Zm46.03027,80H241.97l12.45-56h3.16016ZM229.77,320h8.26l-12.45,56h-14.48ZM184,392H328v4.68994L324.68994,400H187.31006L184,396.68994Zm137.43018,32h-29.98l-5.01026-8h29.39014Zm-47.19,2.65991a63.87,63.87,0,0,0-36.48022,0L244.42993,416h23.13989ZM225.56006,416l-5.01,8H191.73l4.8-8Zm-67.43018,64,24-40H210.54l-8.91992,14.27.02.02A63.43455,63.43455,0,0,0,192.5,480Zm50.54,0a48.00171,48.00171,0,0,1,94.66016,0ZM319.5,480a63.5724,63.5724,0,0,0-9.12988-25.71l.02978-.02L301.46,440h31.16992l28,40Z"/></g></svg>
