<?xml version="1.0"?>
<svg xmlns="http://www.w3.org/2000/svg" viewBox="0 0 512 512" width="512" height="512"><g  fill="#ffffff" id="Out_line" data-name="Out line"><path d="M415.99707,376c-18.46,0-27.48047-3.6084-37.03125-7.42773C368.42969,364.35742,357.53516,360,335.99316,360c-21.541,0-32.43554,4.35742-42.9707,8.57227C283.47266,372.3916,274.45215,376,255.99316,376c-18.458,0-27.47754-3.6084-37.02636-7.42773C208.43066,364.3584,197.53613,360,175.99609,360s-32.43457,4.35742-42.96972,8.57227C123.47656,372.3916,114.457,376,95.99805,376s-27.47852-3.6084-37.02735-7.42773C48.43457,364.35742,37.54,360,16,360v16c18.459,0,27.47852,3.6084,37.02832,7.42773C63.56348,387.64258,74.458,392,95.99805,392s32.43457-4.35742,42.96972-8.57227C148.51758,379.6084,157.53711,376,175.99609,376s27.47852,3.6084,37.02832,7.42773C223.55957,387.64258,234.45312,392,255.99316,392c21.541,0,32.43555-4.35742,42.97071-8.57227C308.51367,379.6084,317.53418,376,335.99316,376c18.46,0,27.48047,3.6084,37.03125,7.42773C383.56055,387.64258,394.45508,392,415.99707,392c21.541,0,32.43555-4.35742,42.97168-8.57227C468.51953,379.6084,477.53906,376,496,376V360c-21.542,0-32.43652,4.35742-42.97266,8.57227C443.47754,372.3916,434.457,376,415.99707,376Z"/><path d="M496,288V272H456V172.30688c8.51831,8.82032,17.33057,17.39185,26.34473,25.60621l10.77734-11.82618C480.2229,174.333,467.75,161.82935,456,148.90454V128H440v16H408V128H392v20.895a558.66137,558.66137,0,0,1-116.25488,97.33936l8.50976,13.54882A574.634,574.634,0,0,0,403.5249,160h26.12085A555.926,555.926,0,0,1,284,268.97559a556.1951,556.1951,0,0,1-156-120.0691V128H112v16H80V128H64v20.8999a561.00549,561.00549,0,0,1-45.27148,44.46826l10.543,12.03516A577.07336,577.07336,0,0,0,75.53027,160h26.10327a559.61934,559.61934,0,0,1-82.22729,70.51855l9.1875,13.09961q9.85-6.90892,19.40625-14.23242V272H16v16h96v16H16v16H64v40H80V320h32v40h16V320H392v40h16V320h32v16h16V320h40V304H456V288ZM160,272V203.02539q7.879,6.99792,16,13.69409V272Zm32-42.56494q7.89515,6.04614,16,11.81494V272H192Zm32,22.79809Q239.6969,262.62219,256.10938,272H224ZM311.89062,272Q328.30017,262.62719,344,252.23315V272ZM360,241.25q8.10388-5.76892,16-11.81519V272H360Zm32-24.53076q8.12109-6.69434,16-13.69409V272H392Zm32-28.457q8.14014-7.80176,16-15.93677V272H424Zm-280,.00024V272H128V172.32544Q135.85376,180.46594,144,188.26245ZM64,216.65552q8.12036-6.69177,16-13.66919V272H64ZM96,272V188.22974q8.15735-7.80836,16-15.93335V272Zm344,32H128V288H440Z"/></g></svg>
