<?xml version="1.0"?>
<svg xmlns="http://www.w3.org/2000/svg" viewBox="0 0 512 512" width="512" height="512"><g id="Out_line" fill="#ffffff" data-name="Out line"><path d="M488,296h-8V256a7.99645,7.99645,0,0,0-5.38306-7.55328A84.61636,84.61636,0,0,0,496,192a7.99977,7.99977,0,0,0-8-8H464a71.97892,71.97892,0,0,0-59.86719,32H367.17029A56.078,56.078,0,0,0,328,200H310a7.99977,7.99977,0,0,0-8,8,65.43148,65.43148,0,0,0,13.52466,40h-6.292l-26.97388-61.66034A87.88289,87.88289,0,0,1,336,168h27.70508a107.47385,107.47385,0,0,1-6.33594,29.23828l15.0166,5.52344A123.50226,123.50226,0,0,0,380,160a7.99977,7.99977,0,0,0-8-8H336a103.86521,103.86521,0,0,0-66.4187,24H223.2597A152.58416,152.58416,0,0,0,94,104H72a7.99977,7.99977,0,0,0-8,8,183.35537,183.35537,0,0,0,4.38928,40H48a7.99977,7.99977,0,0,0-8,8,125.1679,125.1679,0,0,0,2.31281,24H24a7.99977,7.99977,0,0,0-8,8,84.61636,84.61636,0,0,0,21.38306,56.44672A7.99653,7.99653,0,0,0,32,256v40H24a7.99977,7.99977,0,0,0-8,8v64H32v-8H480v8h16V304A7.99977,7.99977,0,0,0,488,296Zm-272,0V280a7.99977,7.99977,0,0,0-8-8H48v-8H464v32Zm-98.74512-55.43164L124.68652,248h-18.4403l3.77575-15.10358Q113.51984,236.81542,117.25488,240.56836ZM224.15527,192h43.11524l10.499,24H272a8.00059,8.00059,0,0,0-7.76123,6.05957L257.75366,248H238.24634l-6.48511-25.94043A8.00059,8.00059,0,0,0,224,216h-9.42267ZM208.192,232h9.56189l3.99987,16H201.8067Zm-23.61249,16H154.24622l3.99987-16h32.71875Zm184.775-16h34.18506l7.71863,16H363.46753ZM464,200h15.5459a68.73775,68.73775,0,0,1-19.83008,40.9707L452.68652,248H429.02319l-11.335-23.49579A55.99631,55.99631,0,0,1,464,200ZM332.62744,243.314A49.569,49.569,0,0,1,318.6333,216H328a40.06071,40.06071,0,0,1,26.49585,10.048L346.41919,248h-9.10571ZM274.24622,248l3.99987-16h6.52271l6.99927,16ZM94,120a136.53119,136.53119,0,0,1,115.83441,64.71759L197.35016,216H152a8.00059,8.00059,0,0,0-7.76123,6.05957l-4.57312,18.2926-11.09729-11.09729A164.6211,164.6211,0,0,1,80.18848,120ZM72.75476,168a179.84474,179.84474,0,0,0,25.57135,50.36945,7.97405,7.97405,0,0,0-2.08734,3.69012l-4.57312,18.2926-4.068-4.068A107.07507,107.07507,0,0,1,56.29,168ZM46.577,200a123.37648,123.37648,0,0,0,29.70715,47.59766L76.68652,248h-17.373l-7.0293-7.0293A68.73775,68.73775,0,0,1,32.4541,200ZM48,288H200v8H48ZM32,336h80v8H32Zm96,8V328a7.99977,7.99977,0,0,0-8-8H32v-8H480v32Z"/><path d="M447.99463,392c-9.5791,0-13.98584-2.9375-19.56494-6.65674C422.18457,381.18066,414.41309,376,399.98975,376c-14.42188,0-22.19287,5.18066-28.437,9.34375C365.97412,389.0625,361.56836,392,351.99072,392s-13.98388-2.9375-19.5625-6.65625C326.18408,381.18066,318.41309,376,303.99072,376c-14.42187,0-22.19287,5.18066-28.43652,9.34375C269.97607,389.0625,265.56982,392,255.99268,392s-13.98291-2.9375-19.56055-6.65625C230.188,381.18066,222.417,376,207.99561,376c-14.42237,0-22.19336,5.18066-28.4375,9.34375C173.97949,389.0625,169.57324,392,159.99561,392c-9.57715,0-13.98291-2.9375-19.56055-6.65625C134.19092,381.18066,126.41992,376,111.99805,376c-14.42237,0-22.19336,5.18066-28.4375,9.34375C77.98193,389.0625,73.57617,392,63.99854,392c-9.57715,0-13.98292-2.9375-19.56153-6.65625C38.19287,381.18066,30.42188,376,16,376v16c9.57764,0,13.9834,2.9375,19.562,6.65625C41.80615,402.81934,49.57666,408,63.99854,408s22.19287-5.18066,28.437-9.34375C98.01416,394.9375,102.42041,392,111.99805,392c9.57715,0,13.9834,2.9375,19.56152,6.65625C137.80322,402.81934,145.57422,408,159.99561,408c14.42236,0,22.19335-5.18066,28.4375-9.34375C194.01172,394.9375,198.418,392,207.99561,392c9.57714,0,13.98291,2.9375,19.56054,6.65625C233.80029,402.81934,241.57129,408,255.99268,408c14.42187,0,22.19287-5.18066,28.43652-9.34375C290.00781,394.9375,294.41357,392,303.99072,392c9.57764,0,13.98389,2.9375,19.5625,6.65625C329.79736,402.81934,337.56836,408,351.99072,408c14.42188,0,22.19287-5.18066,28.437-9.34375C386.00635,394.9375,390.41211,392,399.98975,392c9.5791,0,13.98584,2.9375,19.56494,6.65674C425.7998,402.81934,433.57129,408,447.99463,408s22.19531-5.18066,28.44043-9.34326C482.01416,394.9375,486.4209,392,496,392V376c-14.42334,0-22.19482,5.18066-28.43945,9.34326C461.981,389.0625,457.57422,392,447.99463,392Z"/></g></svg>
