<?xml version="1.0"?>
<svg xmlns="http://www.w3.org/2000/svg" viewBox="0 0 512 512" width="512" height="512"><g  fill="#ffffff" id="Out_line" data-name="Out line"><path d="M488,400H464V328a7.99977,7.99977,0,0,0-8-8H408a7.99977,7.99977,0,0,0-8,8v72H385.90979l-24.516-152H364a19.98726,19.98726,0,0,0,15.39282-32.7522l.18482-.09253A7.99924,7.99924,0,0,0,384,208V176a7.99924,7.99924,0,0,0-4.42236-7.15527L376,167.05591V144a7.99977,7.99977,0,0,0-8-8h-1.75366l-6.48511-25.94043A8.00059,8.00059,0,0,0,352,104V16H336v88a8.00059,8.00059,0,0,0-7.76123,6.05957L321.75366,136H320a7.99977,7.99977,0,0,0-8,8v23.05591l-3.57764,1.78882A7.99924,7.99924,0,0,0,304,176v32a7.99924,7.99924,0,0,0,4.42236,7.15527l.18482.09253A19.98726,19.98726,0,0,0,324,248h2.6062L307.25146,368H296V328a7.99977,7.99977,0,0,0-8-8H240a7.99977,7.99977,0,0,0-8,8v40H216a7.99977,7.99977,0,0,0-8,8v41.72473a115.45245,115.45245,0,0,0-72-33.31018V360a7.99977,7.99977,0,0,0-8-8H80v-8a7.99977,7.99977,0,0,0-8-8H24a7.99977,7.99977,0,0,0-8,8V488a7.99977,7.99977,0,0,0,8,8H488a7.99977,7.99977,0,0,0,8-8V408A7.99977,7.99977,0,0,0,488,400Zm-72-64h32v8H424v16h24v8H424v16h24v8H424v16h24v8H424v16h24v16H416V336Zm-46.29712,64H368a7.99977,7.99977,0,0,0-8,8v40H344V248h1.187ZM328,400h-9.70288L328,339.84131Zm0-248h32v8H328Zm-8,51.05566V180.94434L329.88867,176h28.22266L368,180.94434V184H328v16h40v3.05566L358.11133,208H329.88867ZM342.24609,120h3.50782l4,16H338.24609ZM320,228a4.00458,4.00458,0,0,1,4-4h40a4,4,0,0,1,0,8H324A4.00458,4.00458,0,0,1,320,228ZM248,336h32v8H256v16h24v8H248Zm16,80h16v64H264Zm-64.45166,16H40.45166a99.56221,99.56221,0,0,1,73.2373-32H126.311A99.56221,99.56221,0,0,1,199.54834,432ZM120,368v16h-6.311A115.97878,115.97878,0,0,0,80,388.99878V368ZM64,352v8H40v16H64v8H40v16H54.92053A115.46284,115.46284,0,0,0,32,417.72473V352ZM32,448H208v32H168V464a7.99977,7.99977,0,0,0-8-8H120a7.99977,7.99977,0,0,0-8,8v16H96V464a7.99977,7.99977,0,0,0-8-8H48a7.99977,7.99977,0,0,0-8,8v16H32Zm24,32v-8H80v8Zm72,0v-8h24v8Zm96,0V384h24v8H232v16h16v8H232v16h16v8H232v16h16v24Zm40-80V384h40.6709l-2.58069,16Zm32,16h32v8H304v16h24v8H304v16h24v16H296Zm48,48h16v16H344Zm32-48h24v8H384v16h16v8H384v16h16v16H376Zm40,48h32v16H416Zm64,16H464V416h16Z"/></g></svg>
